<svg xmlns="http://www.w3.org/2000/svg" xmlns:xlink="http://www.w3.org/1999/xlink" width="500" zoomAndPan="magnify" viewBox="0 0 375 374.999991" height="500" preserveAspectRatio="xMidYMid meet" version="1.0"><defs><g/><clipPath id="484e233b54"><path d="M 120.785156 70.148438 L 252.035156 70.148438 L 252.035156 213.398438 L 120.785156 213.398438 Z M 120.785156 70.148438 " clip-rule="nonzero"/></clipPath></defs><g fill="#e53a1e" fill-opacity="1"><g transform="translate(109.769396, 255.26137)"><g><path d="M 23.21875 -3.625 L 24.03125 -3.625 L 24.03125 0 L 2.5 0 L 2.5 -3.625 L 19.515625 -3.625 C 19.648438 -5.15625 19.460938 -6.410156 18.953125 -7.390625 C 18.453125 -8.367188 17.75 -9.085938 16.84375 -9.546875 C 15.9375 -10.003906 14.914062 -10.234375 13.78125 -10.234375 L 5.15625 -10.234375 L 7.46875 -14.90625 C 8.414062 -14.414062 9.257812 -14.125 10 -14.03125 C 10.75 -13.945312 11.625 -13.90625 12.625 -13.90625 C 16.375 -13.90625 19.054688 -13.007812 20.671875 -11.21875 C 22.285156 -9.4375 23.132812 -6.90625 23.21875 -3.625 Z M 23.21875 -3.625 "/></g></g></g><g fill="#e53a1e" fill-opacity="1"><g transform="translate(133.713994, 255.26137)"><g><path d="M -1.890625 0 C -2.171875 0 -2.40625 -0.09375 -2.59375 -0.28125 C -2.789062 -0.476562 -2.890625 -0.71875 -2.890625 -1 L -2.890625 -2.625 C -2.890625 -2.90625 -2.789062 -3.140625 -2.59375 -3.328125 C -2.40625 -3.523438 -2.144531 -3.625 -1.8125 -3.625 L 22.5625 -3.625 C 22.5625 -5.289062 22.238281 -6.609375 21.59375 -7.578125 C 20.957031 -8.554688 20.113281 -9.25 19.0625 -9.65625 C 18.007812 -10.070312 16.851562 -10.28125 15.59375 -10.28125 L 4.3125 -10.28125 L 6.625 -14.90625 C 7.570312 -14.414062 8.414062 -14.125 9.15625 -14.03125 C 9.90625 -13.945312 10.769531 -13.90625 11.75 -13.90625 L 15.59375 -13.90625 C 17.519531 -13.90625 19.285156 -13.582031 20.890625 -12.9375 C 22.492188 -12.289062 23.773438 -11.222656 24.734375 -9.734375 C 25.703125 -8.242188 26.1875 -6.207031 26.1875 -3.625 L 27.828125 -3.625 L 27.828125 0 Z M 12.78125 7.3125 C 12.269531 7.3125 11.828125 7.125 11.453125 6.75 C 11.078125 6.382812 10.890625 5.941406 10.890625 5.421875 C 10.890625 4.910156 11.078125 4.46875 11.453125 4.09375 C 11.828125 3.726562 12.269531 3.546875 12.78125 3.546875 C 13.289062 3.546875 13.734375 3.726562 14.109375 4.09375 C 14.484375 4.46875 14.671875 4.910156 14.671875 5.421875 C 14.671875 5.941406 14.484375 6.382812 14.109375 6.75 C 13.734375 7.125 13.289062 7.3125 12.78125 7.3125 Z M 12.78125 7.3125 "/></g></g></g><g fill="#e53a1e" fill-opacity="1"><g transform="translate(161.469702, 255.26137)"><g><path d="M 11.234375 -19.71875 C 10.753906 -19.71875 10.332031 -19.894531 9.96875 -20.25 C 9.613281 -20.613281 9.4375 -21.035156 9.4375 -21.515625 C 9.4375 -22.035156 9.613281 -22.46875 9.96875 -22.8125 C 10.332031 -23.15625 10.753906 -23.328125 11.234375 -23.328125 C 11.753906 -23.328125 12.1875 -23.15625 12.53125 -22.8125 C 12.875 -22.46875 13.046875 -22.035156 13.046875 -21.515625 C 13.046875 -21.035156 12.875 -20.613281 12.53125 -20.25 C 12.1875 -19.894531 11.753906 -19.71875 11.234375 -19.71875 Z M -1.890625 0 C -2.171875 0 -2.40625 -0.09375 -2.59375 -0.28125 C -2.789062 -0.476562 -2.890625 -0.71875 -2.890625 -1 L -2.890625 -2.625 C -2.890625 -2.90625 -2.789062 -3.140625 -2.59375 -3.328125 C -2.40625 -3.523438 -2.171875 -3.625 -1.890625 -3.625 L 10.9375 -3.625 L 10.9375 -7.578125 C 10.9375 -8.585938 10.894531 -9.460938 10.8125 -10.203125 C 10.738281 -10.941406 10.445312 -11.789062 9.9375 -12.75 L 14.546875 -15.046875 L 14.546875 0 Z M -1.890625 0 "/></g></g></g><g fill="#ffffff" fill-opacity="1"><g transform="translate(178.535017, 255.26137)"><g/></g></g><g fill="#ffffff" fill-opacity="1"><g transform="translate(185.464322, 255.26137)"><g><path d="M 9.203125 8.859375 C 7.640625 8.859375 6.332031 8.554688 5.28125 7.953125 C 4.226562 7.347656 3.4375 6.578125 2.90625 5.640625 C 2.382812 4.703125 2.125 3.71875 2.125 2.6875 C 2.125 1.632812 2.378906 0.628906 2.890625 -0.328125 C 3.398438 -1.285156 4.179688 -2.070312 5.234375 -2.6875 C 6.285156 -3.3125 7.609375 -3.625 9.203125 -3.625 L 12.28125 -3.625 C 13.3125 -3.625 14.195312 -3.671875 14.9375 -3.765625 C 15.675781 -3.867188 16.523438 -4.164062 17.484375 -4.65625 L 19.78125 0 L 9.09375 0 C 7.988281 0 7.160156 0.273438 6.609375 0.828125 C 6.054688 1.378906 5.789062 1.988281 5.8125 2.65625 C 5.8125 3.300781 6.085938 3.890625 6.640625 4.421875 C 7.191406 4.960938 8.007812 5.234375 9.09375 5.234375 L 20.984375 5.234375 C 22.054688 5.234375 22.945312 4.878906 23.65625 4.171875 C 24.363281 3.472656 24.71875 2.582031 24.71875 1.5 L 24.71875 -6.546875 C 24.71875 -8.828125 25.328125 -10.628906 26.546875 -11.953125 C 27.765625 -13.273438 29.414062 -13.925781 31.5 -13.90625 C 33.5 -13.875 35.09375 -13.195312 36.28125 -11.875 C 37.476562 -10.550781 38.078125 -8.773438 38.078125 -6.546875 L 38.078125 0 L 34.421875 2.5 L 34.421875 -6.546875 C 34.421875 -7.722656 34.15625 -8.640625 33.625 -9.296875 C 33.101562 -9.953125 32.351562 -10.28125 31.375 -10.28125 C 30.40625 -10.28125 29.65625 -9.953125 29.125 -9.296875 C 28.601562 -8.640625 28.34375 -7.722656 28.34375 -6.546875 L 28.34375 1.5 C 28.34375 2.96875 28.023438 4.25 27.390625 5.34375 C 26.765625 6.445312 25.882812 7.304688 24.75 7.921875 C 23.625 8.546875 22.328125 8.859375 20.859375 8.859375 Z M 9.203125 8.859375 "/></g></g></g><g fill="#ffffff" fill-opacity="1"><g transform="translate(226.039244, 255.26137)"><g><path d="M 17.25 -3.625 L 18.203125 -3.625 L 18.203125 0 L 17.25 0 C 17.25 2.851562 16.546875 5.039062 15.140625 6.5625 C 13.742188 8.09375 11.941406 8.859375 9.734375 8.859375 C 8.816406 8.859375 8.039062 8.925781 7.40625 9.0625 C 6.78125 9.207031 6.109375 9.472656 5.390625 9.859375 L 3.078125 5.234375 L 9.46875 5.234375 C 10.882812 5.234375 11.90625 4.757812 12.53125 3.8125 C 13.15625 2.863281 13.46875 1.59375 13.46875 0 L 2.5 0 L 2.5 -3.625 C 2.5 -6.03125 2.851562 -7.988281 3.5625 -9.5 C 4.269531 -11.019531 5.1875 -12.132812 6.3125 -12.84375 C 7.445312 -13.550781 8.613281 -13.90625 9.8125 -13.90625 C 11.050781 -13.90625 12.238281 -13.554688 13.375 -12.859375 C 14.519531 -12.160156 15.453125 -11.0625 16.171875 -9.5625 C 16.890625 -8.0625 17.25 -6.082031 17.25 -3.625 Z M 5.96875 -3.625 L 13.46875 -3.625 C 13.46875 -5.3125 13.285156 -6.617188 12.921875 -7.546875 C 12.566406 -8.472656 12.109375 -9.109375 11.546875 -9.453125 C 10.984375 -9.796875 10.378906 -9.96875 9.734375 -9.96875 C 9.117188 -9.96875 8.519531 -9.796875 7.9375 -9.453125 C 7.363281 -9.109375 6.890625 -8.472656 6.515625 -7.546875 C 6.148438 -6.617188 5.96875 -5.3125 5.96875 -3.625 Z M 5.96875 -3.625 "/></g></g></g><g fill="#ffffff" fill-opacity="1"><g transform="translate(244.247915, 255.26137)"><g><path d="M 7.203125 -25.953125 C 6.710938 -25.953125 6.285156 -26.128906 5.921875 -26.484375 C 5.566406 -26.847656 5.390625 -27.273438 5.390625 -27.765625 C 5.390625 -28.273438 5.566406 -28.703125 5.921875 -29.046875 C 6.285156 -29.390625 6.710938 -29.5625 7.203125 -29.5625 C 7.710938 -29.5625 8.140625 -29.390625 8.484375 -29.046875 C 8.835938 -28.703125 9.015625 -28.273438 9.015625 -27.765625 C 9.015625 -27.273438 8.835938 -26.847656 8.484375 -26.484375 C 8.140625 -26.128906 7.710938 -25.953125 7.203125 -25.953125 Z M 14.75 -25.953125 C 14.257812 -25.953125 13.832031 -26.128906 13.46875 -26.484375 C 13.113281 -26.847656 12.9375 -27.273438 12.9375 -27.765625 C 12.9375 -28.273438 13.113281 -28.703125 13.46875 -29.046875 C 13.832031 -29.390625 14.257812 -29.5625 14.75 -29.5625 C 15.257812 -29.5625 15.691406 -29.390625 16.046875 -29.046875 C 16.410156 -28.703125 16.59375 -28.273438 16.59375 -27.765625 C 16.59375 -27.273438 16.410156 -26.847656 16.046875 -26.484375 C 15.691406 -26.128906 15.257812 -25.953125 14.75 -25.953125 Z M -1.921875 0 C -2.128906 0 -2.304688 -0.078125 -2.453125 -0.234375 C -2.609375 -0.390625 -2.6875 -0.566406 -2.6875 -0.765625 L -2.6875 -2.84375 C -2.6875 -3.050781 -2.609375 -3.234375 -2.453125 -3.390625 C -2.304688 -3.546875 -2.128906 -3.625 -1.921875 -3.625 L 14.859375 -3.625 L 14.859375 -8.890625 L 3.734375 -8.890625 L 3.734375 -12.546875 C 3.734375 -14.265625 4.050781 -15.78125 4.6875 -17.09375 C 5.332031 -18.40625 6.210938 -19.429688 7.328125 -20.171875 C 8.453125 -20.921875 9.734375 -21.28125 11.171875 -21.25 C 12.628906 -21.25 13.898438 -20.875 14.984375 -20.125 C 16.078125 -19.382812 16.929688 -18.363281 17.546875 -17.0625 C 18.171875 -15.769531 18.484375 -14.265625 18.484375 -12.546875 L 18.484375 0 Z M 7.234375 -12.546875 L 15.046875 -12.546875 C 15.046875 -14.296875 14.695312 -15.582031 14 -16.40625 C 13.3125 -17.226562 12.367188 -17.640625 11.171875 -17.640625 C 9.929688 -17.640625 8.960938 -17.226562 8.265625 -16.40625 C 7.578125 -15.582031 7.234375 -14.296875 7.234375 -12.546875 Z M 7.234375 -12.546875 "/></g></g></g><g fill="#ffffff" fill-opacity="1"><g transform="translate(116.574173, 300.119042)"><g><path d="M 4.703125 -10.484375 C 4.910156 -10.484375 5.085938 -10.410156 5.234375 -10.265625 C 5.378906 -10.117188 5.453125 -9.941406 5.453125 -9.734375 C 5.453125 -9.515625 5.378906 -9.328125 5.234375 -9.171875 C 5.085938 -9.023438 4.910156 -8.953125 4.703125 -8.953125 C 4.492188 -8.953125 4.316406 -9.023438 4.171875 -9.171875 C 4.023438 -9.328125 3.953125 -9.515625 3.953125 -9.734375 C 3.953125 -9.941406 4.023438 -10.117188 4.171875 -10.265625 C 4.316406 -10.410156 4.492188 -10.484375 4.703125 -10.484375 Z M 6.5625 -10.484375 C 6.78125 -10.484375 6.960938 -10.410156 7.109375 -10.265625 C 7.265625 -10.117188 7.34375 -9.941406 7.34375 -9.734375 C 7.34375 -9.515625 7.265625 -9.328125 7.109375 -9.171875 C 6.960938 -9.023438 6.78125 -8.953125 6.5625 -8.953125 C 6.363281 -8.953125 6.1875 -9.023438 6.03125 -9.171875 C 5.882812 -9.328125 5.8125 -9.515625 5.8125 -9.734375 C 5.8125 -9.941406 5.882812 -10.117188 6.03125 -10.265625 C 6.1875 -10.410156 6.363281 -10.484375 6.5625 -10.484375 Z M 7.34375 -7.515625 L 7.34375 -1.6875 C 7.34375 -1.5 7.394531 -1.351562 7.5 -1.25 C 7.59375 -1.144531 7.691406 -1.09375 7.796875 -1.09375 L 8.109375 -1.09375 L 8.109375 0 L 7.46875 0 C 6.988281 0 6.613281 -0.179688 6.34375 -0.546875 C 5.675781 -0.0664062 4.953125 0.171875 4.171875 0.171875 C 3.097656 0.171875 2.25 -0.25 1.625 -1.09375 C 1.101562 -1.78125 0.84375 -2.601562 0.84375 -3.5625 C 0.84375 -4.6875 1.210938 -5.617188 1.953125 -6.359375 C 2.617188 -7.023438 3.425781 -7.359375 4.375 -7.359375 C 4.925781 -7.359375 5.476562 -7.234375 6.03125 -6.984375 L 6.6875 -7.515625 Z M 6.03125 -5.90625 C 5.570312 -6.132812 5.113281 -6.25 4.65625 -6.25 C 3.875 -6.25 3.242188 -5.941406 2.765625 -5.328125 C 2.359375 -4.816406 2.15625 -4.21875 2.15625 -3.53125 C 2.15625 -2.707031 2.351562 -2.0625 2.75 -1.59375 C 3.125 -1.15625 3.632812 -0.9375 4.28125 -0.9375 C 4.84375 -0.9375 5.425781 -1.085938 6.03125 -1.390625 Z M 6.03125 -5.90625 "/></g></g></g><g fill="#ffffff" fill-opacity="1"><g transform="translate(124.633697, 300.119042)"><g><path d="M 4.03125 -7.09375 L 4.03125 -1.46875 C 4.03125 -1.34375 4.015625 -1.21875 3.984375 -1.09375 L 4.796875 -1.09375 L 4.796875 0 L 4.1875 0 L 3.75 -0.546875 L 3.703125 -0.546875 C 3.421875 -0.179688 3.0625 0 2.625 0 L -0.0625 0 L -0.0625 -1.09375 L 2.125 -1.09375 C 2.289062 -1.09375 2.425781 -1.144531 2.53125 -1.25 C 2.65625 -1.363281 2.71875 -1.507812 2.71875 -1.6875 L 2.71875 -7.09375 Z M 1.390625 1.609375 C 1.597656 1.609375 1.773438 1.679688 1.921875 1.828125 C 2.066406 1.972656 2.140625 2.148438 2.140625 2.359375 C 2.140625 2.578125 2.066406 2.757812 1.921875 2.90625 C 1.773438 3.050781 1.597656 3.125 1.390625 3.125 C 1.179688 3.125 1 3.050781 0.84375 2.90625 C 0.695312 2.757812 0.625 2.578125 0.625 2.359375 C 0.625 2.148438 0.695312 1.972656 0.84375 1.828125 C 1 1.679688 1.179688 1.609375 1.390625 1.609375 Z M 3.25 1.609375 C 3.46875 1.609375 3.648438 1.679688 3.796875 1.828125 C 3.953125 1.972656 4.03125 2.148438 4.03125 2.359375 C 4.03125 2.578125 3.953125 2.757812 3.796875 2.90625 C 3.648438 3.050781 3.46875 3.125 3.25 3.125 C 3.050781 3.125 2.875 3.050781 2.71875 2.90625 C 2.570312 2.757812 2.5 2.578125 2.5 2.359375 C 2.5 2.148438 2.570312 1.972656 2.71875 1.828125 C 2.875 1.679688 3.050781 1.609375 3.25 1.609375 Z M 3.25 1.609375 "/></g></g></g><g fill="#ffffff" fill-opacity="1"><g transform="translate(129.380031, 300.119042)"><g><path d="M 14.609375 -7.09375 L 14.609375 -1.46875 C 14.609375 -1.0625 14.46875 -0.710938 14.1875 -0.421875 C 13.914062 -0.140625 13.59375 0 13.21875 0 L 10.234375 0 L 9.75 -0.546875 L 9.703125 -0.546875 C 9.410156 -0.179688 9.050781 0 8.625 0 L 5.65625 0 L 5.15625 -0.546875 L 5.109375 -0.546875 C 4.816406 -0.179688 4.457031 0 4.03125 0 L -0.0625 0 L -0.0625 -1.09375 L 3.515625 -1.09375 C 3.910156 -1.09375 4.109375 -1.289062 4.109375 -1.6875 L 4.109375 -5.328125 L 5.40625 -5.328125 L 5.40625 -1.46875 C 5.40625 -1.332031 5.394531 -1.207031 5.375 -1.09375 L 8.109375 -1.09375 C 8.503906 -1.09375 8.703125 -1.289062 8.703125 -1.6875 L 8.703125 -6.21875 L 10.015625 -6.21875 L 10.015625 -1.46875 C 10.015625 -1.332031 10 -1.207031 9.96875 -1.09375 L 12.703125 -1.09375 C 13.097656 -1.09375 13.296875 -1.289062 13.296875 -1.6875 L 13.296875 -7.09375 Z M 14.609375 -7.09375 "/></g></g></g><g fill="#ffffff" fill-opacity="1"><g transform="translate(145.036783, 300.119042)"><g><path d="M 2.15625 -7.1875 C 2.53125 -7.25 2.925781 -7.28125 3.34375 -7.28125 C 4.488281 -7.28125 5.410156 -6.9375 6.109375 -6.25 C 6.734375 -5.613281 7.046875 -4.804688 7.046875 -3.828125 L 7.046875 -1.46875 C 7.046875 -1.332031 7.035156 -1.207031 7.015625 -1.09375 L 7.453125 -1.09375 L 7.453125 0 L 7.21875 0 L 6.78125 -0.546875 L 6.734375 -0.546875 C 6.648438 -0.441406 6.5625 -0.347656 6.46875 -0.265625 C 6.21875 -0.0859375 5.945312 0 5.65625 0 L 0.59375 0 L 0.59375 -1.09375 L 5.171875 -1.09375 C 5.546875 -1.09375 5.734375 -1.289062 5.734375 -1.6875 L 5.734375 -3.640625 C 5.734375 -4.367188 5.515625 -4.972656 5.078125 -5.453125 C 4.597656 -5.953125 3.867188 -6.207031 2.890625 -6.21875 C 2.597656 -6.21875 2.351562 -6.195312 2.15625 -6.15625 Z M 2.15625 -7.1875 "/></g></g></g><g fill="#ffffff" fill-opacity="1"><g transform="translate(152.418256, 300.119042)"><g><path d="M 3.359375 -10.484375 C 3.578125 -10.484375 3.757812 -10.410156 3.90625 -10.265625 C 4.0625 -10.117188 4.140625 -9.941406 4.140625 -9.734375 C 4.140625 -9.515625 4.0625 -9.328125 3.90625 -9.171875 C 3.757812 -9.023438 3.578125 -8.953125 3.359375 -8.953125 C 3.148438 -8.953125 2.972656 -9.023438 2.828125 -9.171875 C 2.679688 -9.328125 2.609375 -9.515625 2.609375 -9.734375 C 2.609375 -9.941406 2.679688 -10.117188 2.828125 -10.265625 C 2.972656 -10.410156 3.148438 -10.484375 3.359375 -10.484375 Z M 4.03125 -7.09375 L 4.03125 -1.46875 C 4.03125 -1.34375 4.015625 -1.21875 3.984375 -1.09375 L 4.796875 -1.09375 L 4.796875 0 L 4.1875 0 L 3.75 -0.546875 L 3.703125 -0.546875 C 3.421875 -0.179688 3.0625 0 2.625 0 L -0.0625 0 L -0.0625 -1.09375 L 2.125 -1.09375 C 2.289062 -1.09375 2.425781 -1.144531 2.53125 -1.25 C 2.65625 -1.363281 2.71875 -1.507812 2.71875 -1.6875 L 2.71875 -7.09375 Z M 4.03125 -7.09375 "/></g></g></g><g fill="#ffffff" fill-opacity="1"><g transform="translate(157.16459, 300.119042)"><g><path d="M 3.75 -6.921875 C 4.84375 -7.429688 5.984375 -7.6875 7.171875 -7.6875 C 9.867188 -7.6875 11.21875 -6.144531 11.21875 -3.0625 L 11.21875 -1.453125 C 11.21875 -1.328125 11.207031 -1.207031 11.1875 -1.09375 L 11.71875 -1.09375 L 11.71875 0 L 11.375 0 L 10.953125 -0.546875 L 10.90625 -0.546875 C 10.820312 -0.441406 10.726562 -0.347656 10.625 -0.265625 C 10.375 -0.0859375 10.113281 0 9.84375 0 L 6.125 0 C 5.539062 0 5.140625 -0.0351562 4.921875 -0.109375 L 4.859375 -0.109375 C 4.648438 -0.0351562 4.242188 0 3.640625 0 L -0.0625 0 L -0.0625 -1.09375 L 2.9375 -1.09375 C 2.695312 -1.363281 2.507812 -1.6875 2.375 -2.0625 C 2.238281 -2.457031 2.171875 -2.875 2.171875 -3.3125 C 2.171875 -4.082031 2.34375 -4.71875 2.6875 -5.21875 C 2.9375 -5.59375 3.289062 -5.875 3.75 -6.0625 Z M 9.90625 -2.859375 C 9.90625 -4.179688 9.671875 -5.117188 9.203125 -5.671875 C 8.722656 -6.242188 7.941406 -6.53125 6.859375 -6.53125 C 6.179688 -6.53125 5.535156 -6.441406 4.921875 -6.265625 C 5.910156 -6.253906 6.632812 -5.894531 7.09375 -5.1875 C 7.4375 -4.6875 7.609375 -4.0625 7.609375 -3.3125 C 7.609375 -2.925781 7.550781 -2.550781 7.4375 -2.1875 C 7.300781 -1.757812 7.097656 -1.394531 6.828125 -1.09375 L 9.328125 -1.09375 C 9.515625 -1.09375 9.664062 -1.164062 9.78125 -1.3125 C 9.863281 -1.414062 9.90625 -1.539062 9.90625 -1.6875 Z M 6.453125 -3.328125 C 6.453125 -3.929688 6.304688 -4.414062 6.015625 -4.78125 C 5.734375 -5.144531 5.347656 -5.328125 4.859375 -5.328125 C 4.367188 -5.328125 3.984375 -5.148438 3.703125 -4.796875 C 3.421875 -4.441406 3.28125 -3.953125 3.28125 -3.328125 C 3.28125 -2.722656 3.425781 -2.21875 3.71875 -1.8125 C 4.019531 -1.414062 4.398438 -1.207031 4.859375 -1.1875 C 5.316406 -1.207031 5.695312 -1.414062 6 -1.8125 C 6.300781 -2.21875 6.453125 -2.722656 6.453125 -3.328125 Z M 6.453125 -3.328125 "/></g></g></g><g fill="#ffffff" fill-opacity="1"><g transform="translate(168.814686, 300.119042)"><g><path d="M 4.03125 -11.046875 L 4.03125 -1.46875 C 4.03125 -1.0625 3.894531 -0.722656 3.625 -0.453125 C 3.34375 -0.148438 3.007812 0 2.625 0 L -0.0625 0 L -0.0625 -1.09375 L 2.125 -1.09375 C 2.320312 -1.09375 2.472656 -1.160156 2.578125 -1.296875 C 2.671875 -1.410156 2.71875 -1.539062 2.71875 -1.6875 L 2.71875 -11.046875 Z M 4.03125 -11.046875 "/></g></g></g><g fill="#ffffff" fill-opacity="1"><g transform="translate(173.900051, 300.119042)"><g><path d="M 2.375 -11.046875 L 2.375 -0.15625 L 1.71875 0.390625 L 1.0625 0.390625 L 1.0625 -11.046875 Z M 2.375 -11.046875 "/></g></g></g><g fill="#000000" fill-opacity="1"><g transform="translate(177.347606, 300.119042)"><g/></g></g><g fill="#e53a1e" fill-opacity="1"><g transform="translate(180.183544, 300.119042)"><g><path d="M 6.46875 -7.515625 C 6.664062 -7.515625 6.835938 -7.4375 6.984375 -7.28125 C 7.140625 -7.132812 7.21875 -6.953125 7.21875 -6.734375 C 7.21875 -6.535156 7.140625 -6.359375 6.984375 -6.203125 C 6.835938 -6.054688 6.664062 -5.984375 6.46875 -5.984375 C 6.25 -5.984375 6.066406 -6.054688 5.921875 -6.203125 C 5.773438 -6.359375 5.703125 -6.535156 5.703125 -6.734375 C 5.703125 -6.953125 5.773438 -7.132812 5.921875 -7.28125 C 6.066406 -7.4375 6.25 -7.515625 6.46875 -7.515625 Z M 8.328125 -7.515625 C 8.546875 -7.515625 8.726562 -7.4375 8.875 -7.28125 C 9.019531 -7.132812 9.09375 -6.953125 9.09375 -6.734375 C 9.09375 -6.535156 9.019531 -6.359375 8.875 -6.203125 C 8.726562 -6.054688 8.546875 -5.984375 8.328125 -5.984375 C 8.117188 -5.984375 7.941406 -6.054688 7.796875 -6.203125 C 7.648438 -6.359375 7.578125 -6.535156 7.578125 -6.734375 C 7.578125 -6.953125 7.648438 -7.132812 7.796875 -7.28125 C 7.941406 -7.4375 8.117188 -7.515625 8.328125 -7.515625 Z M 13.6875 -7.09375 L 13.6875 -1.46875 C 13.6875 -1.09375 13.578125 -0.773438 13.359375 -0.515625 C 13.066406 -0.171875 12.71875 0 12.3125 0 L 3.484375 0 C 2.890625 0 2.375 -0.195312 1.9375 -0.59375 C 1.351562 -1.09375 1.0625 -1.742188 1.0625 -2.546875 L 1.0625 -5.4375 L 1.734375 -5.984375 L 2.375 -5.984375 L 2.375 -2.546875 C 2.375 -2.140625 2.519531 -1.800781 2.8125 -1.53125 C 3.082031 -1.238281 3.429688 -1.09375 3.859375 -1.09375 L 11.796875 -1.09375 C 12.191406 -1.09375 12.390625 -1.289062 12.390625 -1.6875 L 12.390625 -7.09375 Z M 13.6875 -7.09375 "/></g></g></g><g fill="#e53a1e" fill-opacity="1"><g transform="translate(194.931086, 300.119042)"><g><path d="M 2.375 -11.046875 L 2.375 -0.15625 L 1.71875 0.390625 L 1.0625 0.390625 L 1.0625 -11.046875 Z M 2.375 -11.046875 "/></g></g></g><g fill="#e53a1e" fill-opacity="1"><g transform="translate(198.367552, 300.119042)"><g><path d="M 5.125 -7.09375 L 5.125 -0.140625 C 5.125 1.003906 4.800781 1.90625 4.15625 2.5625 C 3.644531 3.070312 2.960938 3.410156 2.109375 3.578125 C 1.785156 3.640625 1.425781 3.671875 1.03125 3.671875 C 0.78125 3.671875 0.546875 3.664062 0.328125 3.65625 L -0.1875 3.015625 L -0.1875 2.53125 C 0.113281 2.570312 0.4375 2.59375 0.78125 2.59375 C 2.800781 2.59375 3.8125 1.664062 3.8125 -0.1875 L 3.8125 -7.09375 Z M 5.125 -7.09375 "/></g></g></g><g fill="#e53a1e" fill-opacity="1"><g transform="translate(204.562445, 300.119042)"><g><path d="M 2.375 -11.046875 L 2.375 -1.6875 C 2.375 -1.519531 2.425781 -1.378906 2.53125 -1.265625 C 2.644531 -1.148438 2.789062 -1.09375 2.96875 -1.09375 L 3.15625 -1.09375 L 3.15625 0 L 2.453125 0 C 2.117188 0 1.832031 -0.109375 1.59375 -0.328125 C 1.238281 -0.617188 1.0625 -1 1.0625 -1.46875 L 1.0625 -11.046875 Z M 2.375 -11.046875 "/></g></g></g><g fill="#e53a1e" fill-opacity="1"><g transform="translate(207.675306, 300.119042)"><g><path d="M 9.359375 -11.96875 C 9.566406 -11.96875 9.738281 -11.894531 9.875 -11.75 C 10.007812 -11.601562 10.078125 -11.4375 10.078125 -11.25 C 10.078125 -11.050781 10.007812 -10.878906 9.875 -10.734375 C 9.738281 -10.585938 9.566406 -10.515625 9.359375 -10.515625 C 9.160156 -10.515625 8.988281 -10.585938 8.84375 -10.734375 C 8.707031 -10.878906 8.640625 -11.050781 8.640625 -11.25 C 8.640625 -11.4375 8.707031 -11.601562 8.84375 -11.75 C 8.988281 -11.894531 9.160156 -11.96875 9.359375 -11.96875 Z M 8.4375 -10.484375 C 8.644531 -10.484375 8.820312 -10.410156 8.96875 -10.265625 C 9.113281 -10.117188 9.1875 -9.941406 9.1875 -9.734375 C 9.1875 -9.515625 9.113281 -9.328125 8.96875 -9.171875 C 8.820312 -9.023438 8.644531 -8.953125 8.4375 -8.953125 C 8.21875 -8.953125 8.035156 -9.023438 7.890625 -9.171875 C 7.742188 -9.328125 7.671875 -9.515625 7.671875 -9.734375 C 7.671875 -9.941406 7.742188 -10.117188 7.890625 -10.265625 C 8.035156 -10.410156 8.21875 -10.484375 8.4375 -10.484375 Z M 10.296875 -10.484375 C 10.503906 -10.484375 10.679688 -10.410156 10.828125 -10.265625 C 10.984375 -10.117188 11.0625 -9.941406 11.0625 -9.734375 C 11.0625 -9.515625 10.984375 -9.328125 10.828125 -9.171875 C 10.679688 -9.023438 10.503906 -8.953125 10.296875 -8.953125 C 10.097656 -8.953125 9.921875 -9.023438 9.765625 -9.171875 C 9.617188 -9.328125 9.546875 -9.515625 9.546875 -9.734375 C 9.546875 -9.941406 9.617188 -10.117188 9.765625 -10.265625 C 9.921875 -10.410156 10.097656 -10.484375 10.296875 -10.484375 Z M 14.609375 -7.09375 L 14.609375 -1.46875 C 14.609375 -1.332031 14.59375 -1.207031 14.5625 -1.09375 L 15.390625 -1.09375 L 15.390625 0 L 14.78125 0 L 14.34375 -0.546875 L 14.296875 -0.546875 C 14.003906 -0.179688 13.644531 0 13.21875 0 L 10.171875 0 L 9.75 -0.546875 L 9.703125 -0.546875 C 9.410156 -0.179688 9.050781 0 8.625 0 L 5.578125 0 L 5.15625 -0.546875 L 5.109375 -0.546875 C 4.816406 -0.179688 4.457031 0 4.03125 0 L -0.0625 0 L -0.0625 -1.09375 L 3.515625 -1.09375 C 3.910156 -1.09375 4.109375 -1.289062 4.109375 -1.6875 L 4.109375 -5.328125 L 5.40625 -5.328125 L 5.40625 -1.46875 C 5.40625 -1.332031 5.394531 -1.207031 5.375 -1.09375 L 8.109375 -1.09375 C 8.503906 -1.09375 8.703125 -1.289062 8.703125 -1.6875 L 8.703125 -6.21875 L 10.015625 -6.21875 L 10.015625 -1.46875 C 10.015625 -1.332031 10 -1.207031 9.96875 -1.09375 L 12.703125 -1.09375 C 13.097656 -1.09375 13.296875 -1.289062 13.296875 -1.6875 L 13.296875 -7.09375 Z M 14.609375 -7.09375 "/></g></g></g><g fill="#e53a1e" fill-opacity="1"><g transform="translate(222.993028, 300.119042)"><g><path d="M 1.53125 -10.484375 C 1.738281 -10.484375 1.914062 -10.410156 2.0625 -10.265625 C 2.207031 -10.117188 2.28125 -9.941406 2.28125 -9.734375 C 2.28125 -9.515625 2.207031 -9.328125 2.0625 -9.171875 C 1.914062 -9.023438 1.738281 -8.953125 1.53125 -8.953125 C 1.320312 -8.953125 1.140625 -9.023438 0.984375 -9.171875 C 0.835938 -9.328125 0.765625 -9.515625 0.765625 -9.734375 C 0.765625 -9.941406 0.835938 -10.117188 0.984375 -10.265625 C 1.140625 -10.410156 1.320312 -10.484375 1.53125 -10.484375 Z M 3.40625 -10.484375 C 3.613281 -10.484375 3.789062 -10.410156 3.9375 -10.265625 C 4.082031 -10.117188 4.15625 -9.941406 4.15625 -9.734375 C 4.15625 -9.515625 4.082031 -9.328125 3.9375 -9.171875 C 3.789062 -9.023438 3.613281 -8.953125 3.40625 -8.953125 C 3.1875 -8.953125 3.003906 -9.023438 2.859375 -9.171875 C 2.710938 -9.328125 2.640625 -9.515625 2.640625 -9.734375 C 2.640625 -9.941406 2.710938 -10.117188 2.859375 -10.265625 C 3.003906 -10.410156 3.1875 -10.484375 3.40625 -10.484375 Z M 4.03125 -7.09375 L 4.03125 -1.46875 C 4.03125 -1.34375 4.015625 -1.21875 3.984375 -1.09375 L 4.796875 -1.09375 L 4.796875 0 L 4.1875 0 L 3.75 -0.546875 L 3.703125 -0.546875 C 3.421875 -0.179688 3.0625 0 2.625 0 L -0.0625 0 L -0.0625 -1.09375 L 2.125 -1.09375 C 2.289062 -1.09375 2.425781 -1.144531 2.53125 -1.25 C 2.65625 -1.363281 2.71875 -1.507812 2.71875 -1.6875 L 2.71875 -7.09375 Z M 4.03125 -7.09375 "/></g></g></g><g fill="#e53a1e" fill-opacity="1"><g transform="translate(227.739361, 300.119042)"><g><path d="M 14.609375 -7.09375 L 14.609375 -1.46875 C 14.609375 -1.0625 14.46875 -0.710938 14.1875 -0.421875 C 13.914062 -0.140625 13.59375 0 13.21875 0 L 10.234375 0 L 9.75 -0.546875 L 9.703125 -0.546875 C 9.410156 -0.179688 9.050781 0 8.625 0 L 5.65625 0 L 5.15625 -0.546875 L 5.109375 -0.546875 C 4.816406 -0.179688 4.457031 0 4.03125 0 L -0.0625 0 L -0.0625 -1.09375 L 3.515625 -1.09375 C 3.910156 -1.09375 4.109375 -1.289062 4.109375 -1.6875 L 4.109375 -5.328125 L 5.40625 -5.328125 L 5.40625 -1.46875 C 5.40625 -1.332031 5.394531 -1.207031 5.375 -1.09375 L 8.109375 -1.09375 C 8.503906 -1.09375 8.703125 -1.289062 8.703125 -1.6875 L 8.703125 -6.21875 L 10.015625 -6.21875 L 10.015625 -1.46875 C 10.015625 -1.332031 10 -1.207031 9.96875 -1.09375 L 12.703125 -1.09375 C 13.097656 -1.09375 13.296875 -1.289062 13.296875 -1.6875 L 13.296875 -7.09375 Z M 14.609375 -7.09375 "/></g></g></g><g fill="#e53a1e" fill-opacity="1"><g transform="translate(243.396113, 300.119042)"><g><path d="M 9.21875 -11.046875 L 9.21875 -1.46875 C 9.21875 -1.320312 9.195312 -1.195312 9.15625 -1.09375 L 10 -1.09375 L 10 0 L 9.390625 0 L 8.9375 -0.546875 L 8.890625 -0.546875 C 8.753906 -0.367188 8.59375 -0.234375 8.40625 -0.140625 C 8.21875 -0.046875 8.019531 0 7.8125 0 L 1.078125 0 L 0.546875 -0.65625 L 0.546875 -1.09375 L 4.671875 -1.09375 L 2.015625 -9.140625 L 3.328125 -9.140625 L 6 -1.09375 L 7.328125 -1.09375 C 7.503906 -1.09375 7.644531 -1.15625 7.75 -1.28125 C 7.84375 -1.382812 7.890625 -1.519531 7.890625 -1.6875 L 7.890625 -11.046875 Z M 9.21875 -11.046875 "/></g></g></g><g fill="#e53a1e" fill-opacity="1"><g transform="translate(253.320269, 300.119042)"><g><path d="M 4.03125 -11.046875 L 4.03125 -1.46875 C 4.03125 -1.0625 3.894531 -0.722656 3.625 -0.453125 C 3.34375 -0.148438 3.007812 0 2.625 0 L -0.0625 0 L -0.0625 -1.09375 L 2.125 -1.09375 C 2.320312 -1.09375 2.472656 -1.160156 2.578125 -1.296875 C 2.671875 -1.410156 2.71875 -1.539062 2.71875 -1.6875 L 2.71875 -11.046875 Z M 4.03125 -11.046875 "/></g></g></g><g clip-path="url(#484e233b54)"><path fill="#e53a1e" d="M 120.785156 213.285156 L 120.789062 213.285156 L 186.480469 187.070312 L 252.171875 213.285156 L 252.175781 213.285156 Z M 151.34375 158.988281 L 138.589844 169.441406 L 138.589844 202.546875 L 151.34375 197.453125 Z M 234.371094 147.144531 L 223.203125 156.292969 L 223.203125 198.089844 L 234.371094 202.546875 Z M 206.535156 104.890625 L 220.082031 115.992188 L 220.082031 196.84375 L 206.535156 191.4375 Z M 203.414062 70.148438 L 183.304688 86.621094 L 183.304688 95.882812 L 194.097656 104.726562 L 194.097656 186.472656 L 203.414062 190.191406 Z M 167.75 115.695312 L 154.464844 126.578125 L 154.464844 196.210938 L 167.75 190.910156 Z M 170.867188 89.726562 L 190.976562 106.203125 L 190.976562 185.230469 L 186.480469 183.433594 L 170.867188 189.664062 Z M 252.171875 213.285156 L 186.480469 198.316406 L 120.789062 213.285156 L 186.480469 202.285156 L 252.171875 213.285156 " fill-opacity="1" fill-rule="evenodd"/></g><path stroke-linecap="butt" transform="matrix(0.578592, 0.477212, -0.477212, 0.578592, 171.492576, 89.84894)" fill="none" stroke-linejoin="miter" d="M -0.00135356 0.498493 L 34.317628 0.50104 " stroke="#ffffff" stroke-width="1" stroke-opacity="1" stroke-miterlimit="4"/><path stroke-linecap="butt" transform="matrix(0.581728, -0.473384, 0.473384, 0.581728, 183.401287, 86.418304)" fill="none" stroke-linejoin="miter" d="M -0.00279228 0.50077 L 34.316767 0.50117 " stroke="#ffffff" stroke-width="1" stroke-opacity="1" stroke-miterlimit="4"/><path stroke-linecap="butt" transform="matrix(0, -0.75, 0.75, 0, 203.220166, 189.146707)" fill="none" stroke-linejoin="miter" d="M -0.00230763 0.498112 L 158.247703 0.498112 " stroke="#ffffff" stroke-width="1" stroke-opacity="1" stroke-miterlimit="4"/><path stroke-linecap="butt" transform="matrix(0, -0.75, 0.75, 0, 193.840115, 186.868113)" fill="none" stroke-linejoin="miter" d="M 0.00123444 0.499638 L 109.6002 0.499638 " stroke="#ffffff" stroke-width="1" stroke-opacity="1" stroke-miterlimit="4"/><path stroke-linecap="butt" transform="matrix(0.000000001309, -0.75, 0.75, 0.000000001309, 183.263167, 96.413139)" fill="none" stroke-linejoin="miter" d="M -0.00123097 0.498069 L 12.93627 0.498069 " stroke="#ffffff" stroke-width="1" stroke-opacity="1" stroke-miterlimit="4"/><path stroke-linecap="butt" transform="matrix(-0.591281, -0.461397, 0.461397, -0.591281, 193.985661, 104.964281)" fill="none" stroke-linejoin="miter" d="M 0.0021442 0.499463 L 17.891865 0.498855 " stroke="#ffffff" stroke-width="1" stroke-opacity="1" stroke-miterlimit="4"/><path stroke-linecap="butt" transform="matrix(0.000000001309, 0.75, -0.75, 0.000000001309, 171.36906, 89.822075)" fill="none" stroke-linejoin="miter" d="M -0.00234987 0.502497 L 132.440367 0.502498 " stroke="#ffffff" stroke-width="1" stroke-opacity="1" stroke-miterlimit="4"/><path stroke-linecap="butt" transform="matrix(0.00389319, 0.74999, -0.74999, 0.00389319, 191.479343, 106.516164)" fill="none" stroke-linejoin="miter" d="M 0.00190166 0.498516 L 105.091849 0.502363 " stroke="#ffffff" stroke-width="1" stroke-opacity="1" stroke-miterlimit="4"/><path stroke-linecap="butt" transform="matrix(0.75, 0, 0, 0.75, 122.03788, 275.411408)" fill="none" stroke-linejoin="miter" d="M 0.00157709 1.998331 L 174.564089 1.998331 " stroke="#ffffff" stroke-width="4" stroke-opacity="1" stroke-miterlimit="4"/></svg>