<svg xmlns="http://www.w3.org/2000/svg" xmlns:xlink="http://www.w3.org/1999/xlink" width="500" zoomAndPan="magnify" viewBox="0 0 375 374.999991" height="500" preserveAspectRatio="xMidYMid meet" version="1.0"><defs><g/><clipPath id="dfff426a7c"><path d="M 121.800781 78.160156 L 253.050781 78.160156 L 253.050781 221.410156 L 121.800781 221.410156 Z M 121.800781 78.160156 " clip-rule="nonzero"/></clipPath></defs><g fill="#000000" fill-opacity="1"><g transform="translate(106.074114, 256.534202)"><g><path d="M 22.234375 -11.0625 C 22.234375 -8.363281 21.691406 -6.0625 20.609375 -4.15625 C 19.535156 -2.25 17.9375 -0.945312 15.8125 -0.25 L 21.09375 5.25 L 17.109375 5.25 L 12.84375 0.28125 C 12.726562 0.28125 12.601562 0.285156 12.46875 0.296875 C 12.332031 0.304688 12.203125 0.3125 12.078125 0.3125 C 9.796875 0.3125 7.894531 -0.160156 6.375 -1.109375 C 4.863281 -2.054688 3.738281 -3.382812 3 -5.09375 C 2.257812 -6.800781 1.890625 -8.800781 1.890625 -11.09375 C 1.890625 -13.332031 2.257812 -15.300781 3 -17 C 3.738281 -18.695312 4.863281 -20.019531 6.375 -20.96875 C 7.894531 -21.914062 9.804688 -22.390625 12.109375 -22.390625 C 14.316406 -22.390625 16.171875 -21.921875 17.671875 -20.984375 C 19.171875 -20.046875 20.304688 -18.726562 21.078125 -17.03125 C 21.847656 -15.332031 22.234375 -13.34375 22.234375 -11.0625 Z M 4.8125 -11.0625 C 4.8125 -8.28125 5.398438 -6.085938 6.578125 -4.484375 C 7.753906 -2.890625 9.585938 -2.09375 12.078125 -2.09375 C 14.566406 -2.09375 16.394531 -2.890625 17.5625 -4.484375 C 18.726562 -6.085938 19.3125 -8.28125 19.3125 -11.0625 C 19.3125 -13.84375 18.734375 -16.019531 17.578125 -17.59375 C 16.421875 -19.164062 14.597656 -19.953125 12.109375 -19.953125 C 9.597656 -19.953125 7.753906 -19.164062 6.578125 -17.59375 C 5.398438 -16.019531 4.8125 -13.84375 4.8125 -11.0625 Z M 4.8125 -11.0625 "/></g></g></g><g fill="#000000" fill-opacity="1"><g transform="translate(130.1997, 256.534202)"><g><path d="M 9.203125 0 L 1.234375 0 L 1.234375 -1.609375 L 3.828125 -2.1875 L 3.828125 -19.828125 L 1.234375 -20.453125 L 1.234375 -22.0625 L 9.203125 -22.0625 L 9.203125 -20.453125 L 6.609375 -19.828125 L 6.609375 -2.1875 L 9.203125 -1.609375 Z M 9.203125 0 "/></g></g></g><g fill="#000000" fill-opacity="1"><g transform="translate(140.671627, 256.534202)"><g><path d="M 28.328125 -22.0625 L 22.453125 0 L 19.640625 0 L 15.359375 -14.453125 C 15.171875 -15.035156 15 -15.628906 14.84375 -16.234375 C 14.6875 -16.835938 14.550781 -17.367188 14.4375 -17.828125 C 14.320312 -18.296875 14.253906 -18.625 14.234375 -18.8125 C 14.210938 -18.539062 14.097656 -17.96875 13.890625 -17.09375 C 13.691406 -16.21875 13.457031 -15.304688 13.1875 -14.359375 L 9.015625 0 L 6.203125 0 L 0.375 -22.0625 L 3.28125 -22.0625 L 6.703125 -8.59375 C 6.953125 -7.644531 7.160156 -6.726562 7.328125 -5.84375 C 7.503906 -4.957031 7.644531 -4.125 7.75 -3.34375 C 7.851562 -4.144531 8.007812 -5.019531 8.21875 -5.96875 C 8.425781 -6.914062 8.660156 -7.835938 8.921875 -8.734375 L 12.8125 -22.0625 L 15.6875 -22.0625 L 19.734375 -8.65625 C 20.023438 -7.707031 20.273438 -6.757812 20.484375 -5.8125 C 20.691406 -4.863281 20.84375 -4.039062 20.9375 -3.34375 C 21.019531 -4.101562 21.160156 -4.929688 21.359375 -5.828125 C 21.554688 -6.722656 21.78125 -7.65625 22.03125 -8.625 L 25.421875 -22.0625 Z M 28.328125 -22.0625 "/></g></g></g><g fill="#000000" fill-opacity="1"><g transform="translate(169.399923, 256.534202)"><g><path d="M 16.828125 0 L 14.171875 -6.828125 L 5.4375 -6.828125 L 2.8125 0 L 0 0 L 8.625 -22.15625 L 11.125 -22.15625 L 19.703125 0 Z M 13.34375 -9.296875 L 10.875 -15.96875 C 10.8125 -16.132812 10.707031 -16.429688 10.5625 -16.859375 C 10.414062 -17.296875 10.273438 -17.742188 10.140625 -18.203125 C 10.015625 -18.671875 9.910156 -19.03125 9.828125 -19.28125 C 9.660156 -18.632812 9.488281 -18.007812 9.3125 -17.40625 C 9.132812 -16.800781 8.984375 -16.320312 8.859375 -15.96875 L 6.359375 -9.296875 Z M 13.34375 -9.296875 "/></g></g></g><g fill="#ffffff" fill-opacity="1"><g transform="translate(189.148331, 256.534202)"><g/></g></g><g fill="#e53a1e" fill-opacity="1"><g transform="translate(194.714733, 256.534202)"><g><path d="M 20.484375 0 L 17.234375 0 L 5.4375 -18.3125 L 5.3125 -18.3125 C 5.351562 -17.59375 5.40625 -16.695312 5.46875 -15.625 C 5.53125 -14.5625 5.5625 -13.460938 5.5625 -12.328125 L 5.5625 0 L 3 0 L 3 -22.0625 L 6.203125 -22.0625 L 17.984375 -3.796875 L 18.109375 -3.796875 C 18.085938 -4.128906 18.0625 -4.625 18.03125 -5.28125 C 18 -5.9375 17.96875 -6.648438 17.9375 -7.421875 C 17.90625 -8.203125 17.890625 -8.929688 17.890625 -9.609375 L 17.890625 -22.0625 L 20.484375 -22.0625 Z M 20.484375 0 "/></g></g></g><g fill="#e53a1e" fill-opacity="1"><g transform="translate(218.191622, 256.534202)"><g><path d="M 16.828125 0 L 14.171875 -6.828125 L 5.4375 -6.828125 L 2.8125 0 L 0 0 L 8.625 -22.15625 L 11.125 -22.15625 L 19.703125 0 Z M 13.34375 -9.296875 L 10.875 -15.96875 C 10.8125 -16.132812 10.707031 -16.429688 10.5625 -16.859375 C 10.414062 -17.296875 10.273438 -17.742188 10.140625 -18.203125 C 10.015625 -18.671875 9.910156 -19.03125 9.828125 -19.28125 C 9.660156 -18.632812 9.488281 -18.007812 9.3125 -17.40625 C 9.132812 -16.800781 8.984375 -16.320312 8.859375 -15.96875 L 6.359375 -9.296875 Z M 13.34375 -9.296875 "/></g></g></g><g fill="#e53a1e" fill-opacity="1"><g transform="translate(237.930745, 256.534202)"><g><path d="M -0.125 5.875 C -0.613281 5.875 -1.046875 5.835938 -1.421875 5.765625 C -1.796875 5.691406 -2.125 5.59375 -2.40625 5.46875 L -2.40625 3.125 C -2.082031 3.226562 -1.734375 3.300781 -1.359375 3.34375 C -0.984375 3.394531 -0.59375 3.421875 -0.1875 3.421875 C 0.332031 3.421875 0.820312 3.316406 1.28125 3.109375 C 1.75 2.910156 2.125 2.554688 2.40625 2.046875 C 2.695312 1.546875 2.84375 0.820312 2.84375 -0.125 L 2.84375 -22.0625 L 5.625 -22.0625 L 5.625 -0.34375 C 5.625 1.78125 5.097656 3.347656 4.046875 4.359375 C 2.992188 5.367188 1.601562 5.875 -0.125 5.875 Z M -0.125 5.875 "/></g></g></g><g fill="#e53a1e" fill-opacity="1"><g transform="translate(246.363895, 256.534202)"><g><path d="M 20.671875 -11.25 C 20.671875 -7.519531 19.65625 -4.710938 17.625 -2.828125 C 15.59375 -0.941406 12.765625 0 9.140625 0 L 3 0 L 3 -22.0625 L 9.796875 -22.0625 C 11.992188 -22.0625 13.910156 -21.644531 15.546875 -20.8125 C 17.191406 -19.988281 18.457031 -18.773438 19.34375 -17.171875 C 20.226562 -15.566406 20.671875 -13.59375 20.671875 -11.25 Z M 17.734375 -11.15625 C 17.734375 -14.09375 17.003906 -16.242188 15.546875 -17.609375 C 14.097656 -18.984375 12.046875 -19.671875 9.390625 -19.671875 L 5.78125 -19.671875 L 5.78125 -2.375 L 8.765625 -2.375 C 14.742188 -2.375 17.734375 -5.300781 17.734375 -11.15625 Z M 17.734375 -11.15625 "/></g></g></g><g fill="#e53a1e" fill-opacity="1"><g transform="translate(109.651756, 294.469785)"><g><path d="M 1.875 -3.40625 L 1.875 -0.84375 L 6.265625 -0.84375 L 6.265625 0 L 0.921875 0 L 0.921875 -7.46875 L 6.09375 -7.46875 L 6.09375 -6.625 L 1.875 -6.625 L 1.875 -4.25 L 5.9375 -4.25 L 5.9375 -3.40625 Z M 1.875 -3.40625 "/></g></g></g><g fill="#e53a1e" fill-opacity="1"><g transform="translate(116.483191, 294.469785)"><g><path d="M 6.625 -7.46875 L 6.625 0 L 5.546875 0 L 1.6875 -6.0625 L 1.6875 0 L 0.78125 0 L 0.78125 -7.46875 L 1.8125 -7.46875 L 5.71875 -1.375 L 5.71875 -7.46875 Z M 6.625 -7.46875 "/></g></g></g><g fill="#e53a1e" fill-opacity="1"><g transform="translate(123.877837, 294.469785)"><g><path d="M 7.265625 -3.9375 L 7.265625 0 L 6.65625 0 L 6.421875 -1.046875 C 5.710938 -0.273438 4.863281 0.109375 3.875 0.109375 C 2.789062 0.109375 1.925781 -0.285156 1.28125 -1.078125 C 0.726562 -1.785156 0.453125 -2.664062 0.453125 -3.71875 C 0.453125 -5.082031 0.898438 -6.132812 1.796875 -6.875 C 2.378906 -7.351562 3.128906 -7.59375 4.046875 -7.59375 C 5.117188 -7.59375 5.941406 -7.265625 6.515625 -6.609375 C 6.835938 -6.253906 7.050781 -5.796875 7.15625 -5.234375 L 6.1875 -5.234375 C 6.082031 -5.703125 5.835938 -6.070312 5.453125 -6.34375 C 5.078125 -6.613281 4.597656 -6.75 4.015625 -6.75 C 3.171875 -6.75 2.507812 -6.441406 2.03125 -5.828125 C 1.613281 -5.285156 1.40625 -4.597656 1.40625 -3.765625 C 1.40625 -2.796875 1.664062 -2.03125 2.1875 -1.46875 C 2.644531 -0.976562 3.273438 -0.734375 4.078125 -0.734375 C 4.804688 -0.734375 5.390625 -0.96875 5.828125 -1.4375 C 6.222656 -1.851562 6.421875 -2.363281 6.421875 -2.96875 L 6.421875 -3.09375 L 4.140625 -3.09375 L 4.140625 -3.9375 Z M 7.265625 -3.9375 "/></g></g></g><g fill="#e53a1e" fill-opacity="1"><g transform="translate(131.846117, 294.469785)"><g><path d="M 2 -7.46875 L 2 0 L 1.015625 0 L 1.015625 -7.46875 Z M 2 -7.46875 "/></g></g></g><g fill="#e53a1e" fill-opacity="1"><g transform="translate(134.693418, 294.469785)"><g><path d="M 6.625 -7.46875 L 6.625 0 L 5.546875 0 L 1.6875 -6.0625 L 1.6875 0 L 0.78125 0 L 0.78125 -7.46875 L 1.8125 -7.46875 L 5.71875 -1.375 L 5.71875 -7.46875 Z M 6.625 -7.46875 "/></g></g></g><g fill="#e53a1e" fill-opacity="1"><g transform="translate(142.088063, 294.469785)"><g><path d="M 1.875 -3.40625 L 1.875 -0.84375 L 6.265625 -0.84375 L 6.265625 0 L 0.921875 0 L 0.921875 -7.46875 L 6.09375 -7.46875 L 6.09375 -6.625 L 1.875 -6.625 L 1.875 -4.25 L 5.9375 -4.25 L 5.9375 -3.40625 Z M 1.875 -3.40625 "/></g></g></g><g fill="#e53a1e" fill-opacity="1"><g transform="translate(148.919499, 294.469785)"><g><path d="M 1.875 -3.40625 L 1.875 -0.84375 L 6.265625 -0.84375 L 6.265625 0 L 0.921875 0 L 0.921875 -7.46875 L 6.09375 -7.46875 L 6.09375 -6.625 L 1.875 -6.625 L 1.875 -4.25 L 5.9375 -4.25 L 5.9375 -3.40625 Z M 1.875 -3.40625 "/></g></g></g><g fill="#e53a1e" fill-opacity="1"><g transform="translate(155.750935, 294.469785)"><g><path d="M 1.90625 -3.21875 L 1.90625 0 L 0.953125 0 L 0.953125 -7.46875 L 4.390625 -7.46875 C 5.179688 -7.46875 5.769531 -7.273438 6.15625 -6.890625 C 6.5 -6.546875 6.671875 -6.070312 6.671875 -5.46875 C 6.671875 -5.039062 6.578125 -4.6875 6.390625 -4.40625 C 6.203125 -4.132812 5.898438 -3.894531 5.484375 -3.6875 C 5.816406 -3.550781 6.066406 -3.375 6.234375 -3.15625 C 6.390625 -2.925781 6.476562 -2.457031 6.5 -1.75 C 6.507812 -1.21875 6.539062 -0.863281 6.59375 -0.6875 C 6.65625 -0.507812 6.773438 -0.359375 6.953125 -0.234375 L 6.953125 0 L 5.796875 0 C 5.648438 -0.320312 5.578125 -0.660156 5.578125 -1.015625 L 5.578125 -2.1875 C 5.578125 -2.257812 5.546875 -2.375 5.484375 -2.53125 C 5.421875 -2.695312 5.363281 -2.8125 5.3125 -2.875 C 5.125 -3.101562 4.804688 -3.21875 4.359375 -3.21875 Z M 1.90625 -4.0625 L 4.203125 -4.0625 C 5.179688 -4.0625 5.671875 -4.488281 5.671875 -5.34375 C 5.671875 -6.195312 5.179688 -6.625 4.203125 -6.625 L 1.90625 -6.625 Z M 1.90625 -4.0625 "/></g></g></g><g fill="#e53a1e" fill-opacity="1"><g transform="translate(163.14558, 294.469785)"><g><path d="M 2 -7.46875 L 2 0 L 1.015625 0 L 1.015625 -7.46875 Z M 2 -7.46875 "/></g></g></g><g fill="#e53a1e" fill-opacity="1"><g transform="translate(165.992881, 294.469785)"><g><path d="M 6.625 -7.46875 L 6.625 0 L 5.546875 0 L 1.6875 -6.0625 L 1.6875 0 L 0.78125 0 L 0.78125 -7.46875 L 1.8125 -7.46875 L 5.71875 -1.375 L 5.71875 -7.46875 Z M 6.625 -7.46875 "/></g></g></g><g fill="#e53a1e" fill-opacity="1"><g transform="translate(173.387527, 294.469785)"><g><path d="M 7.265625 -3.9375 L 7.265625 0 L 6.65625 0 L 6.421875 -1.046875 C 5.710938 -0.273438 4.863281 0.109375 3.875 0.109375 C 2.789062 0.109375 1.925781 -0.285156 1.28125 -1.078125 C 0.726562 -1.785156 0.453125 -2.664062 0.453125 -3.71875 C 0.453125 -5.082031 0.898438 -6.132812 1.796875 -6.875 C 2.378906 -7.351562 3.128906 -7.59375 4.046875 -7.59375 C 5.117188 -7.59375 5.941406 -7.265625 6.515625 -6.609375 C 6.835938 -6.253906 7.050781 -5.796875 7.15625 -5.234375 L 6.1875 -5.234375 C 6.082031 -5.703125 5.835938 -6.070312 5.453125 -6.34375 C 5.078125 -6.613281 4.597656 -6.75 4.015625 -6.75 C 3.171875 -6.75 2.507812 -6.441406 2.03125 -5.828125 C 1.613281 -5.285156 1.40625 -4.597656 1.40625 -3.765625 C 1.40625 -2.796875 1.664062 -2.03125 2.1875 -1.46875 C 2.644531 -0.976562 3.273438 -0.734375 4.078125 -0.734375 C 4.804688 -0.734375 5.390625 -0.96875 5.828125 -1.4375 C 6.222656 -1.851562 6.421875 -2.363281 6.421875 -2.96875 L 6.421875 -3.09375 L 4.140625 -3.09375 L 4.140625 -3.9375 Z M 7.265625 -3.9375 "/></g></g></g><g fill="#e53a1e" fill-opacity="1"><g transform="translate(181.358782, 294.469785)"><g/></g></g><g fill="#e53a1e" fill-opacity="1"><g transform="translate(183.277842, 294.469785)"><g/></g></g><g fill="#000000" fill-opacity="1"><g transform="translate(185.202532, 294.469785)"><g><path d="M 6.78125 -5.1875 L 5.796875 -5.1875 C 5.691406 -5.6875 5.515625 -6.050781 5.265625 -6.28125 C 4.929688 -6.59375 4.441406 -6.75 3.796875 -6.75 C 3.015625 -6.75 2.414062 -6.441406 2 -5.828125 C 1.625 -5.285156 1.4375 -4.582031 1.4375 -3.71875 C 1.4375 -2.738281 1.6875 -1.976562 2.1875 -1.4375 C 2.625 -0.96875 3.1875 -0.734375 3.875 -0.734375 C 4.71875 -0.734375 5.296875 -1.039062 5.609375 -1.65625 C 5.753906 -1.945312 5.867188 -2.328125 5.953125 -2.796875 L 6.9375 -2.796875 C 6.707031 -0.859375 5.6875 0.109375 3.875 0.109375 C 2.90625 0.109375 2.140625 -0.171875 1.578125 -0.734375 C 0.847656 -1.472656 0.484375 -2.457031 0.484375 -3.6875 C 0.484375 -4.882812 0.832031 -5.867188 1.53125 -6.640625 C 2.101562 -7.273438 2.890625 -7.59375 3.890625 -7.59375 C 5.515625 -7.59375 6.476562 -6.789062 6.78125 -5.1875 Z M 6.78125 -5.1875 "/></g></g></g><g fill="#000000" fill-opacity="1"><g transform="translate(192.597177, 294.469785)"><g><path d="M 4 -7.59375 C 5.15625 -7.59375 6.066406 -7.191406 6.734375 -6.390625 C 7.304688 -5.691406 7.59375 -4.804688 7.59375 -3.734375 C 7.59375 -2.503906 7.222656 -1.53125 6.484375 -0.8125 C 5.828125 -0.195312 5 0.109375 4 0.109375 C 2.832031 0.109375 1.914062 -0.285156 1.25 -1.078125 C 0.675781 -1.773438 0.390625 -2.660156 0.390625 -3.734375 C 0.390625 -4.960938 0.765625 -5.9375 1.515625 -6.65625 C 2.160156 -7.28125 2.988281 -7.59375 4 -7.59375 Z M 3.984375 -6.75 C 3.140625 -6.75 2.46875 -6.4375 1.96875 -5.8125 C 1.550781 -5.269531 1.34375 -4.578125 1.34375 -3.734375 C 1.34375 -2.765625 1.613281 -2.003906 2.15625 -1.453125 C 2.632812 -0.972656 3.242188 -0.734375 3.984375 -0.734375 C 4.835938 -0.734375 5.515625 -1.039062 6.015625 -1.65625 C 6.441406 -2.195312 6.65625 -2.890625 6.65625 -3.734375 C 6.65625 -4.703125 6.378906 -5.460938 5.828125 -6.015625 C 5.347656 -6.503906 4.734375 -6.75 3.984375 -6.75 Z M 3.984375 -6.75 "/></g></g></g><g fill="#000000" fill-opacity="1"><g transform="translate(200.565458, 294.469785)"><g><path d="M 6.625 -7.46875 L 6.625 0 L 5.546875 0 L 1.6875 -6.0625 L 1.6875 0 L 0.78125 0 L 0.78125 -7.46875 L 1.8125 -7.46875 L 5.71875 -1.375 L 5.71875 -7.46875 Z M 6.625 -7.46875 "/></g></g></g><g fill="#000000" fill-opacity="1"><g transform="translate(207.960103, 294.469785)"><g><path d="M 6.109375 -5.328125 L 5.203125 -5.328125 C 5.179688 -6.296875 4.5625 -6.78125 3.34375 -6.78125 C 2.84375 -6.78125 2.4375 -6.664062 2.125 -6.4375 C 1.820312 -6.21875 1.671875 -5.921875 1.671875 -5.546875 C 1.671875 -5.273438 1.757812 -5.054688 1.9375 -4.890625 C 2.125 -4.722656 2.445312 -4.582031 2.90625 -4.46875 L 4.671875 -4.015625 C 5.796875 -3.710938 6.359375 -3.082031 6.359375 -2.125 C 6.359375 -1.4375 6.085938 -0.878906 5.546875 -0.453125 C 5.054688 -0.078125 4.351562 0.109375 3.4375 0.109375 C 2.289062 0.109375 1.453125 -0.234375 0.921875 -0.921875 C 0.648438 -1.304688 0.503906 -1.8125 0.484375 -2.4375 L 1.390625 -2.4375 L 1.390625 -2.421875 C 1.390625 -1.878906 1.570312 -1.457031 1.9375 -1.15625 C 2.3125 -0.863281 2.832031 -0.71875 3.5 -0.71875 C 4.113281 -0.71875 4.570312 -0.816406 4.875 -1.015625 C 5.226562 -1.265625 5.40625 -1.609375 5.40625 -2.046875 C 5.40625 -2.597656 4.953125 -2.988281 4.046875 -3.21875 L 2.1875 -3.703125 C 1.207031 -3.953125 0.71875 -4.523438 0.71875 -5.421875 C 0.71875 -6.128906 0.988281 -6.679688 1.53125 -7.078125 C 1.988281 -7.421875 2.601562 -7.59375 3.375 -7.59375 C 4.457031 -7.59375 5.234375 -7.273438 5.703125 -6.640625 C 5.972656 -6.265625 6.109375 -5.863281 6.109375 -5.4375 C 6.109375 -5.414062 6.109375 -5.378906 6.109375 -5.328125 Z M 6.109375 -5.328125 "/></g></g></g><g fill="#000000" fill-opacity="1"><g transform="translate(214.791538, 294.469785)"><g><path d="M 5.65625 -7.46875 L 6.609375 -7.46875 L 6.609375 -2.34375 C 6.609375 -1.539062 6.3125 -0.914062 5.71875 -0.46875 C 5.207031 -0.0820312 4.539062 0.109375 3.71875 0.109375 C 2.78125 0.109375 2.050781 -0.132812 1.53125 -0.625 C 1.082031 -1.0625 0.859375 -1.632812 0.859375 -2.34375 L 0.859375 -7.46875 L 1.8125 -7.46875 L 1.8125 -2.34375 C 1.8125 -1.832031 1.976562 -1.4375 2.3125 -1.15625 C 2.644531 -0.875 3.113281 -0.734375 3.71875 -0.734375 C 4.363281 -0.734375 4.859375 -0.890625 5.203125 -1.203125 C 5.503906 -1.492188 5.65625 -1.875 5.65625 -2.34375 Z M 5.65625 -7.46875 "/></g></g></g><g fill="#000000" fill-opacity="1"><g transform="translate(222.186184, 294.469785)"><g><path d="M 1.78125 -7.46875 L 1.78125 -0.84375 L 5.453125 -0.84375 L 5.453125 0 L 0.828125 0 L 0.828125 -7.46875 Z M 1.78125 -7.46875 "/></g></g></g><g fill="#000000" fill-opacity="1"><g transform="translate(227.880786, 294.469785)"><g><path d="M 3.625 -6.625 L 3.625 0 L 2.6875 0 L 2.6875 -6.625 L 0.21875 -6.625 L 0.21875 -7.46875 L 6.078125 -7.46875 L 6.078125 -6.625 Z M 3.625 -6.625 "/></g></g></g><g fill="#000000" fill-opacity="1"><g transform="translate(234.138598, 294.469785)"><g><path d="M 4.859375 -2.25 L 1.984375 -2.25 L 1.1875 0 L 0.171875 0 L 2.84375 -7.46875 L 4.078125 -7.46875 L 6.6875 0 L 5.640625 0 Z M 4.59375 -3.046875 L 3.4375 -6.4375 L 2.21875 -3.046875 Z M 4.59375 -3.046875 "/></g></g></g><g fill="#000000" fill-opacity="1"><g transform="translate(240.970034, 294.469785)"><g><path d="M 6.625 -7.46875 L 6.625 0 L 5.546875 0 L 1.6875 -6.0625 L 1.6875 0 L 0.78125 0 L 0.78125 -7.46875 L 1.8125 -7.46875 L 5.71875 -1.375 L 5.71875 -7.46875 Z M 6.625 -7.46875 "/></g></g></g><g fill="#000000" fill-opacity="1"><g transform="translate(248.364679, 294.469785)"><g><path d="M 6.78125 -5.1875 L 5.796875 -5.1875 C 5.691406 -5.6875 5.515625 -6.050781 5.265625 -6.28125 C 4.929688 -6.59375 4.441406 -6.75 3.796875 -6.75 C 3.015625 -6.75 2.414062 -6.441406 2 -5.828125 C 1.625 -5.285156 1.4375 -4.582031 1.4375 -3.71875 C 1.4375 -2.738281 1.6875 -1.976562 2.1875 -1.4375 C 2.625 -0.96875 3.1875 -0.734375 3.875 -0.734375 C 4.71875 -0.734375 5.296875 -1.039062 5.609375 -1.65625 C 5.753906 -1.945312 5.867188 -2.328125 5.953125 -2.796875 L 6.9375 -2.796875 C 6.707031 -0.859375 5.6875 0.109375 3.875 0.109375 C 2.90625 0.109375 2.140625 -0.171875 1.578125 -0.734375 C 0.847656 -1.472656 0.484375 -2.457031 0.484375 -3.6875 C 0.484375 -4.882812 0.832031 -5.867188 1.53125 -6.640625 C 2.101562 -7.273438 2.890625 -7.59375 3.890625 -7.59375 C 5.515625 -7.59375 6.476562 -6.789062 6.78125 -5.1875 Z M 6.78125 -5.1875 "/></g></g></g><g fill="#000000" fill-opacity="1"><g transform="translate(255.759324, 294.469785)"><g><path d="M 3.96875 -2.9375 L 3.96875 0 L 3.015625 0 L 3.015625 -2.9375 L 0.140625 -7.46875 L 1.296875 -7.46875 L 3.5 -3.828125 L 5.640625 -7.46875 L 6.78125 -7.46875 Z M 3.96875 -2.9375 "/></g></g></g><path stroke-linecap="butt" transform="matrix(0.75, 0, 0, 0.75, 121.800904, 274.254474)" fill="none" stroke-linejoin="miter" d="M -0.000163269 1.999243 L 174.604015 1.999243 " stroke="#000000" stroke-width="4" stroke-opacity="1" stroke-miterlimit="4"/><g clip-path="url(#dfff426a7c)"><path fill="#e53a1e" d="M 121.804688 221.296875 L 121.808594 221.296875 L 187.5 195.082031 L 253.191406 221.296875 Z M 152.363281 167.003906 L 139.605469 177.453125 L 139.605469 210.558594 L 152.363281 205.464844 Z M 235.386719 155.15625 L 224.21875 164.304688 L 224.21875 206.101562 L 235.386719 210.558594 Z M 207.550781 112.90625 L 221.101562 124.003906 L 221.101562 204.855469 L 207.550781 199.449219 Z M 204.429688 78.160156 L 184.324219 94.636719 L 184.324219 103.894531 L 195.113281 112.738281 L 195.113281 194.488281 L 204.429688 198.203125 Z M 168.765625 123.707031 L 155.484375 134.589844 L 155.484375 204.222656 L 168.765625 198.921875 Z M 171.886719 97.742188 L 191.996094 114.214844 L 191.996094 193.242188 L 187.5 191.445312 L 171.886719 197.675781 Z M 253.191406 221.296875 L 187.5 206.328125 L 121.808594 221.296875 L 187.5 210.296875 L 253.191406 221.296875 " fill-opacity="1" fill-rule="evenodd"/></g><path stroke-linecap="butt" transform="matrix(0.578592, 0.477212, -0.477212, 0.578592, 172.51016, 97.861693)" fill="none" stroke-linejoin="miter" d="M 0.00308744 0.499795 L 34.314737 0.501639 " stroke="#000000" stroke-width="1" stroke-opacity="1" stroke-miterlimit="4"/><path stroke-linecap="butt" transform="matrix(0.581728, -0.473384, 0.473384, 0.581728, 184.418856, 94.43103)" fill="none" stroke-linejoin="miter" d="M 0.0000848896 0.50138 L 34.315605 0.498492 " stroke="#000000" stroke-width="1" stroke-opacity="1" stroke-miterlimit="4"/><path stroke-linecap="butt" transform="matrix(0, -0.75, 0.75, 0, 204.237749, 197.159459)" fill="none" stroke-linejoin="miter" d="M -0.000929596 0.500709 L 158.249081 0.500709 " stroke="#000000" stroke-width="1" stroke-opacity="1" stroke-miterlimit="4"/><path stroke-linecap="butt" transform="matrix(0, -0.75, 0.75, 0, 194.857696, 194.880866)" fill="none" stroke-linejoin="miter" d="M -0.00259586 0.502239 L 109.601578 0.502239 " stroke="#000000" stroke-width="1" stroke-opacity="1" stroke-miterlimit="4"/><path stroke-linecap="butt" transform="matrix(0.000000001309, -0.75, 0.75, 0.000000001309, 184.280736, 104.425892)" fill="none" stroke-linejoin="miter" d="M 0.000147058 0.500686 L 12.937648 0.500686 " stroke="#000000" stroke-width="1" stroke-opacity="1" stroke-miterlimit="4"/><path stroke-linecap="butt" transform="matrix(-0.591281, -0.461397, 0.461397, -0.591281, 195.003244, 112.977062)" fill="none" stroke-linejoin="miter" d="M 0.000967791 0.502178 L 17.894795 0.498365 " stroke="#000000" stroke-width="1" stroke-opacity="1" stroke-miterlimit="4"/><path stroke-linecap="butt" transform="matrix(0.000000001309, 0.75, -0.75, 0.000000001309, 172.386644, 97.834798)" fill="none" stroke-linejoin="miter" d="M 0.00151883 0.4999 L 132.444236 0.4999 " stroke="#000000" stroke-width="1" stroke-opacity="1" stroke-miterlimit="4"/><path stroke-linecap="butt" transform="matrix(0.00389319, 0.74999, -0.74999, 0.00389319, 192.496912, 114.528919)" fill="none" stroke-linejoin="miter" d="M 0.000506996 0.5011 L 105.090482 0.499739 " stroke="#000000" stroke-width="1" stroke-opacity="1" stroke-miterlimit="4"/></svg>